<?xml version="1.0" encoding="UTF-8" standalone="no"?>
<!-- Created with Inkscape (http://www.inkscape.org/) -->

<svg
   width="500"
   height="500"
   viewBox="0 0 132.29167 132.29166"
   version="1.1"
   id="svg5"
   inkscape:version="1.1.2 (0a00cf5339, 2022-02-04)"
   sodipodi:docname="emptyTemplateLoyaltyNft.svg"
   xmlns:inkscape="http://www.inkscape.org/namespaces/inkscape"
   xmlns:sodipodi="http://sodipodi.sourceforge.net/DTD/sodipodi-0.dtd"
   xmlns="http://www.w3.org/2000/svg"
   xmlns:svg="http://www.w3.org/2000/svg">
  <sodipodi:namedview
     id="namedview7"
     pagecolor="#ffffff"
     bordercolor="#000000"
     borderopacity="0.25"
     inkscape:pageshadow="2"
     inkscape:pageopacity="0.0"
     inkscape:pagecheckerboard="0"
     inkscape:document-units="mm"
     showgrid="false"
     units="px"
     width="300px"
     inkscape:zoom="1.3273709"
     inkscape:cx="328.46886"
     inkscape:cy="122.42245"
     inkscape:window-width="2560"
     inkscape:window-height="1376"
     inkscape:window-x="0"
     inkscape:window-y="0"
     inkscape:window-maximized="1"
     inkscape:current-layer="layer1" />
  <defs
     id="defs2" />
  <g
     inkscape:label="Layer 1"
     inkscape:groupmode="layer"
     id="layer1">
    <rect
       style="fill:#f3f2e9;stroke:#cca998;stroke-width:0.597001;-inkscape-stroke:none;stop-color:#000000"
       id="rect1024"
       width="132.42368"
       height="131.92612"
       x="0.057618521"
       y="0.39242876"
       ry="0.13213767" />
    <g
       id="g25"
       transform="matrix(0.6260941,0,0,0.66567237,-63.99244,-189.27621)">
      <path
         style="fill:#dbdee0"
         d="m 162.838,323.191 4.695,113.899 c 0.179,4.35 3.758,7.784 8.112,7.784 h 63.996 c 4.354,0 7.932,-3.434 8.112,-7.784 l 4.695,-113.899 z"
         id="path5" />
      <polygon
         style="fill:#bec0c2"
         points="166.742,417.898 248.543,417.898 251.218,352.993 164.067,352.993 "
         id="polygon7" />
      <path
         style="fill:#dbdee0"
         d="m 243.207,293.527 h -5.093 c -1.41,0 -2.553,1.143 -2.553,2.552 v 5.472 h 10.198 v -5.472 c 0,-1.409 -1.143,-2.552 -2.552,-2.552 z"
         id="path9" />
      <path
         style="fill:#81b75e"
         d="m 251.843,358.213 c -9.967,0 -19.933,0 -29.9,0 -15.873,0 -31.747,0 -47.62,0 -3.627,0 -7.254,0 -10.882,0 -1.273,0 -2.524,1.125 -2.452,2.452 0.789,14.645 1.577,29.289 2.366,43.934 0.112,2.086 0.225,4.173 0.337,6.259 0.071,1.324 1.066,2.452 2.453,2.452 9.384,0 18.768,0 28.152,0 14.84,0 29.68,0 44.519,0 3.441,0 6.882,0 10.324,0 1.066,0 1.771,-0.561 2.118,-1.302 0.188,-0.321 0.311,-0.703 0.335,-1.15 0.789,-14.645 1.578,-29.289 2.366,-43.934 0.112,-2.087 0.225,-4.173 0.337,-6.26 0.071,-1.323 -1.182,-2.451 -2.453,-2.451 z"
         id="path11" />
      <path
         style="fill:#44555e"
         d="m 207.642,369.088 c -6.999,0 -12.673,7.465 -12.673,16.674 0,9.209 5.674,16.674 12.673,16.674 6.999,0 12.673,-7.465 12.673,-16.674 0,-9.209 -5.673,-16.674 -12.673,-16.674 z m 3.57,23.375 c -0.013,0.244 -0.018,0.485 -0.042,0.722 -0.029,0.236 -0.057,0.469 -0.085,0.698 -0.023,0.229 -0.076,0.452 -0.117,0.672 -0.047,0.219 -0.077,0.436 -0.142,0.643 -0.115,0.417 -0.217,0.819 -0.361,1.191 -0.07,0.187 -0.129,0.371 -0.203,0.546 -0.076,0.174 -0.148,0.345 -0.223,0.508 -0.074,0.164 -0.145,0.323 -0.228,0.473 -0.079,0.151 -0.156,0.296 -0.234,0.435 -0.038,0.069 -0.076,0.138 -0.113,0.205 -0.041,0.065 -0.081,0.13 -0.121,0.193 -0.079,0.126 -0.157,0.246 -0.233,0.36 -0.145,0.231 -0.3,0.431 -0.44,0.609 -0.269,0.363 -0.517,0.618 -0.683,0.792 -0.166,0.174 -0.257,0.263 -0.257,0.263 0,0 0.04,-0.122 0.115,-0.35 0.038,-0.113 0.085,-0.251 0.143,-0.411 0.031,-0.079 0.056,-0.168 0.083,-0.262 0.028,-0.093 0.058,-0.192 0.089,-0.297 0.061,-0.209 0.138,-0.434 0.194,-0.689 0.031,-0.126 0.063,-0.257 0.099,-0.391 0.017,-0.067 0.035,-0.135 0.053,-0.204 0.014,-0.071 0.028,-0.143 0.042,-0.216 0.051,-0.293 0.135,-0.592 0.172,-0.921 0.022,-0.163 0.051,-0.328 0.078,-0.496 0.026,-0.169 0.036,-0.345 0.056,-0.522 0.086,-0.705 0.1,-1.472 0.084,-2.267 -0.009,-0.199 -0.018,-0.4 -0.028,-0.603 -0.014,-0.203 -0.04,-0.407 -0.058,-0.613 -0.011,-0.103 -0.018,-0.206 -0.032,-0.31 -0.016,-0.103 -0.032,-0.207 -0.048,-0.31 -0.016,-0.104 -0.032,-0.208 -0.048,-0.313 l -0.023,-0.157 -0.033,-0.156 c -0.044,-0.208 -0.09,-0.417 -0.131,-0.628 -0.056,-0.207 -0.112,-0.416 -0.168,-0.625 -0.047,-0.212 -0.13,-0.414 -0.196,-0.622 -0.034,-0.104 -0.067,-0.208 -0.101,-0.312 l -0.116,-0.286 -0.113,-0.287 -0.055,-0.144 -0.079,-0.167 c -0.098,-0.208 -0.196,-0.416 -0.294,-0.625 -0.204,-0.395 -0.432,-0.798 -0.677,-1.208 -0.487,-0.822 -1.035,-1.684 -1.515,-2.634 -0.118,-0.238 -0.234,-0.48 -0.342,-0.728 -0.054,-0.124 -0.109,-0.265 -0.163,-0.396 -0.029,-0.071 -0.048,-0.125 -0.069,-0.182 l -0.061,-0.17 -0.039,-0.109 -0.029,-0.099 -0.058,-0.198 c -0.038,-0.132 -0.076,-0.263 -0.114,-0.394 -0.042,-0.129 -0.065,-0.264 -0.091,-0.398 -0.025,-0.133 -0.051,-0.266 -0.076,-0.398 -0.177,-1.062 -0.146,-2.109 0.017,-3.046 0.161,-0.94 0.447,-1.774 0.752,-2.504 0.315,-0.727 0.655,-1.352 0.971,-1.892 0.322,-0.536 0.619,-0.988 0.874,-1.354 0.253,-0.366 0.461,-0.648 0.605,-0.839 0.146,-0.19 0.224,-0.292 0.224,-0.292 0,0 -0.026,0.125 -0.074,0.36 -0.051,0.234 -0.128,0.576 -0.235,1.005 -0.105,0.426 -0.232,0.942 -0.377,1.535 -0.062,0.296 -0.149,0.603 -0.21,0.931 -0.031,0.164 -0.075,0.329 -0.104,0.499 -0.031,0.169 -0.063,0.343 -0.095,0.52 -0.117,0.704 -0.197,1.458 -0.194,2.226 0.004,0.768 0.1,1.549 0.321,2.315 0.03,0.095 0.059,0.191 0.089,0.287 0.029,0.096 0.056,0.192 0.098,0.286 0.037,0.094 0.075,0.189 0.113,0.284 l 0.056,0.143 0.026,0.067 c -0.003,-0.007 -0.005,-0.013 -0.003,-0.01 l 0.005,0.01 0.01,0.021 0.018,0.041 0.074,0.165 c 0.025,0.055 0.05,0.113 0.072,0.153 0.047,0.089 0.086,0.172 0.137,0.268 0.1,0.192 0.206,0.386 0.319,0.581 0.448,0.782 0.994,1.592 1.527,2.484 0.264,0.447 0.528,0.914 0.764,1.41 l 0.011,0.023 0.031,0.068 0.018,0.043 0.037,0.085 0.074,0.171 0.145,0.342 0.072,0.171 0.072,0.203 c 0.047,0.136 0.094,0.271 0.141,0.406 0.045,0.135 0.092,0.271 0.134,0.405 0.034,0.131 0.068,0.261 0.102,0.391 0.062,0.261 0.14,0.517 0.18,0.78 0.047,0.261 0.092,0.52 0.133,0.777 0.029,0.259 0.052,0.516 0.077,0.771 l 0.018,0.19 0.006,0.19 c 0.003,0.126 0.006,0.252 0.009,0.377 0.003,0.125 0.006,0.249 0.008,0.373 -0.004,0.123 -0.012,0.246 -0.017,0.368 z"
         id="path13" />
      <g
         id="g19">
        <path
           style="fill:#44555e"
           d="m 246.917,299.312 h -78.55 c -3.054,0 -5.529,2.475 -5.529,5.529 v 9.216 h 89.608 v -9.216 c 0,-3.053 -2.475,-5.529 -5.529,-5.529 z"
           id="path15" />
        <path
           style="fill:#44555e"
           d="m 255.901,313.472 h -96.517 c -1.508,0 -2.731,1.223 -2.731,2.731 v 9.306 c 0,1.508 1.223,2.731 2.731,2.731 h 96.517 c 1.508,0 2.731,-1.223 2.731,-2.731 v -9.306 c 0,-1.508 -1.223,-2.731 -2.731,-2.731 z"
           id="path17" />
      </g>
      <rect
         x="162.838"
         y="310.26099"
         style="fill:#3b4c52"
         width="89.608002"
         height="3.211"
         id="rect21" />
      <polygon
         style="fill:#bec0c2"
         points="163.29,334.152 251.995,334.152 252.238,328.24 163.046,328.24 "
         id="polygon23" />
    </g>
    <g
       id="DESIGNED_BY_FREEPIK"
       transform="matrix(0.41499735,0,0,0.41499735,-100.0928,-196.05001)">
      <g
         id="g534">
        <g
           id="g486">
          <path
             style="fill:#44555e"
             d="m 288.492,774.671 v -0.257 c -0.349,0.398 -0.692,0.724 -1.031,0.973 -0.338,0.251 -0.706,0.441 -1.102,0.57 -0.396,0.132 -0.827,0.195 -1.296,0.195 -0.621,0 -1.196,-0.131 -1.725,-0.393 -0.528,-0.263 -0.986,-0.639 -1.372,-1.126 -0.387,-0.487 -0.68,-1.06 -0.879,-1.719 -0.199,-0.659 -0.299,-1.371 -0.299,-2.137 0,-1.621 0.396,-2.886 1.188,-3.791 0.792,-0.904 1.833,-1.357 3.125,-1.357 0.747,0 1.377,0.129 1.89,0.384 0.513,0.257 1.013,0.652 1.501,1.183 v -3.827 c 0,-0.532 0.105,-0.934 0.318,-1.206 0.211,-0.273 0.514,-0.408 0.907,-0.408 0.393,0 0.694,0.125 0.907,0.375 0.212,0.251 0.318,0.618 0.318,1.106 v 11.436 c 0,0.494 -0.113,0.864 -0.342,1.111 -0.228,0.246 -0.522,0.37 -0.883,0.37 -0.354,0 -0.647,-0.128 -0.879,-0.384 -0.231,-0.258 -0.346,-0.623 -0.346,-1.098 z m -5.1,-3.809 c 0,0.703 0.109,1.301 0.328,1.795 0.219,0.494 0.518,0.866 0.897,1.115 0.38,0.251 0.795,0.377 1.244,0.377 0.456,0 0.872,-0.119 1.249,-0.357 0.377,-0.236 0.677,-0.602 0.902,-1.091 0.225,-0.491 0.337,-1.105 0.337,-1.839 0,-0.69 -0.112,-1.284 -0.337,-1.782 -0.225,-0.496 -0.528,-0.876 -0.912,-1.14 -0.383,-0.262 -0.803,-0.393 -1.258,-0.393 -0.475,0 -0.899,0.135 -1.273,0.403 -0.374,0.269 -0.663,0.654 -0.869,1.158 -0.206,0.505 -0.308,1.089 -0.308,1.754 z"
             id="path466" />
          <path
             style="fill:#44555e"
             d="m 299.926,771.518 h -5.071 c 0.006,0.588 0.125,1.107 0.356,1.557 0.23,0.45 0.538,0.789 0.921,1.017 0.383,0.229 0.806,0.341 1.268,0.341 0.31,0 0.593,-0.035 0.85,-0.107 0.257,-0.074 0.505,-0.187 0.746,-0.343 0.241,-0.154 0.462,-0.321 0.665,-0.499 0.202,-0.178 0.464,-0.419 0.788,-0.723 0.133,-0.113 0.323,-0.171 0.571,-0.171 0.266,0 0.48,0.074 0.645,0.22 0.165,0.146 0.248,0.351 0.248,0.617 0,0.234 -0.093,0.507 -0.275,0.821 -0.185,0.314 -0.462,0.614 -0.832,0.902 -0.372,0.288 -0.835,0.526 -1.397,0.717 -0.56,0.19 -1.204,0.285 -1.933,0.285 -1.664,0 -2.96,-0.476 -3.884,-1.425 -0.924,-0.949 -1.386,-2.238 -1.386,-3.865 0,-0.767 0.113,-1.478 0.341,-2.132 0.229,-0.656 0.561,-1.218 0.997,-1.687 0.437,-0.469 0.975,-0.827 1.615,-1.078 0.639,-0.25 1.349,-0.374 2.127,-0.374 1.013,0 1.882,0.212 2.606,0.641 0.726,0.427 1.27,0.979 1.63,1.656 0.36,0.678 0.542,1.369 0.542,2.07 0,0.653 -0.187,1.075 -0.56,1.27 -0.374,0.193 -0.9,0.29 -1.578,0.29 z m -5.071,-1.472 h 4.702 c -0.063,-0.887 -0.303,-1.551 -0.717,-1.99 -0.415,-0.44 -0.96,-0.66 -1.638,-0.66 -0.646,0 -1.177,0.223 -1.591,0.669 -0.416,0.446 -0.667,1.107 -0.756,1.981 z"
             id="path468" />
          <path
             style="fill:#44555e"
             d="m 311.741,772.761 c 0,0.716 -0.173,1.329 -0.522,1.839 -0.348,0.51 -0.862,0.896 -1.543,1.159 -0.68,0.263 -1.508,0.393 -2.483,0.393 -0.931,0 -1.728,-0.143 -2.394,-0.428 -0.664,-0.284 -1.156,-0.642 -1.472,-1.067 -0.317,-0.429 -0.475,-0.857 -0.475,-1.288 0,-0.285 0.101,-0.528 0.304,-0.73 0.202,-0.202 0.459,-0.304 0.77,-0.304 0.271,0 0.48,0.066 0.626,0.199 0.146,0.133 0.286,0.32 0.418,0.56 0.266,0.464 0.585,0.807 0.956,1.036 0.37,0.228 0.875,0.342 1.515,0.342 0.519,0 0.945,-0.116 1.277,-0.347 0.332,-0.232 0.498,-0.496 0.498,-0.794 0,-0.456 -0.172,-0.787 -0.518,-0.996 -0.345,-0.209 -0.913,-0.409 -1.705,-0.6 -0.893,-0.221 -1.619,-0.454 -2.18,-0.698 -0.561,-0.242 -1.008,-0.565 -1.344,-0.963 -0.335,-0.399 -0.503,-0.891 -0.503,-1.473 0,-0.518 0.155,-1.01 0.465,-1.473 0.311,-0.461 0.768,-0.83 1.374,-1.106 0.603,-0.276 1.333,-0.414 2.188,-0.414 0.671,0 1.275,0.069 1.809,0.21 0.536,0.138 0.983,0.326 1.34,0.561 0.358,0.233 0.63,0.493 0.816,0.777 0.186,0.285 0.28,0.563 0.28,0.837 0,0.297 -0.1,0.541 -0.298,0.732 -0.199,0.188 -0.482,0.285 -0.85,0.285 -0.266,0 -0.492,-0.076 -0.679,-0.229 -0.186,-0.151 -0.4,-0.379 -0.641,-0.683 -0.196,-0.253 -0.426,-0.456 -0.693,-0.608 -0.266,-0.152 -0.627,-0.227 -1.083,-0.227 -0.469,0 -0.858,0.099 -1.168,0.3 -0.31,0.198 -0.465,0.446 -0.465,0.744 0,0.273 0.114,0.496 0.341,0.67 0.228,0.175 0.535,0.319 0.922,0.433 0.386,0.113 0.917,0.252 1.596,0.417 0.803,0.197 1.46,0.432 1.97,0.703 0.509,0.271 0.896,0.594 1.16,0.965 0.26,0.369 0.391,0.791 0.391,1.266 z"
             id="path470" />
          <path
             style="fill:#44555e"
             d="m 314.39,764.404 c -0.361,0 -0.669,-0.111 -0.926,-0.333 -0.256,-0.221 -0.385,-0.534 -0.385,-0.94 0,-0.368 0.131,-0.669 0.394,-0.907 0.263,-0.238 0.569,-0.356 0.916,-0.356 0.336,0 0.633,0.107 0.893,0.323 0.26,0.216 0.39,0.528 0.39,0.94 0,0.399 -0.127,0.711 -0.381,0.936 -0.252,0.224 -0.553,0.337 -0.901,0.337 z m 1.282,2.678 v 7.493 c 0,0.52 -0.124,0.913 -0.371,1.179 -0.247,0.266 -0.56,0.398 -0.94,0.398 -0.38,0 -0.689,-0.136 -0.926,-0.408 -0.238,-0.272 -0.356,-0.662 -0.356,-1.169 v -7.418 c 0,-0.512 0.118,-0.898 0.356,-1.158 0.237,-0.26 0.546,-0.39 0.926,-0.39 0.38,0 0.693,0.13 0.94,0.39 0.248,0.26 0.371,0.621 0.371,1.083 z"
             id="path472" />
          <path
             style="fill:#44555e"
             d="m 327.031,767.51 v 7.531 c 0,0.861 -0.093,1.602 -0.277,2.224 -0.182,0.619 -0.477,1.133 -0.883,1.538 -0.405,0.404 -0.935,0.706 -1.59,0.901 -0.655,0.197 -1.471,0.295 -2.446,0.295 -0.893,0 -1.69,-0.125 -2.393,-0.375 -0.702,-0.251 -1.243,-0.573 -1.624,-0.969 -0.379,-0.396 -0.57,-0.803 -0.57,-1.221 0,-0.316 0.108,-0.575 0.324,-0.773 0.215,-0.2 0.475,-0.3 0.778,-0.3 0.38,0 0.712,0.168 0.997,0.503 0.139,0.171 0.283,0.345 0.432,0.519 0.149,0.175 0.314,0.323 0.494,0.447 0.181,0.122 0.398,0.214 0.65,0.274 0.253,0.059 0.545,0.09 0.874,0.09 0.671,0 1.192,-0.093 1.563,-0.28 0.371,-0.187 0.63,-0.448 0.779,-0.784 0.149,-0.334 0.236,-0.693 0.261,-1.077 0.025,-0.384 0.044,-0.999 0.057,-1.849 -0.399,0.559 -0.859,0.983 -1.382,1.274 -0.522,0.291 -1.145,0.436 -1.866,0.436 -0.868,0 -1.625,-0.222 -2.275,-0.665 -0.648,-0.443 -1.147,-1.063 -1.495,-1.861 -0.349,-0.799 -0.522,-1.719 -0.522,-2.764 0,-0.778 0.105,-1.482 0.317,-2.108 0.213,-0.628 0.515,-1.156 0.907,-1.587 0.393,-0.431 0.845,-0.755 1.358,-0.974 0.513,-0.218 1.076,-0.327 1.691,-0.327 0.734,0 1.371,0.142 1.909,0.422 0.538,0.283 1.039,0.725 1.5,1.326 v -0.352 c 0,-0.449 0.11,-0.797 0.332,-1.045 0.222,-0.246 0.507,-0.37 0.855,-0.37 0.5,0 0.832,0.164 0.997,0.489 0.165,0.327 0.248,0.798 0.248,1.412 z m -7.513,3.286 c 0,1.051 0.229,1.846 0.688,2.384 0.459,0.539 1.053,0.808 1.781,0.808 0.43,0 0.837,-0.116 1.22,-0.347 0.384,-0.232 0.695,-0.58 0.936,-1.045 0.24,-0.466 0.361,-1.03 0.361,-1.695 0,-1.057 -0.232,-1.881 -0.698,-2.469 -0.466,-0.589 -1.078,-0.884 -1.838,-0.884 -0.741,0 -1.334,0.282 -1.78,0.846 -0.447,0.562 -0.67,1.364 -0.67,2.402 z"
             id="path474" />
          <path
             style="fill:#44555e"
             d="m 331.152,767.044 v 0.314 c 0.455,-0.602 0.954,-1.043 1.496,-1.325 0.542,-0.281 1.163,-0.423 1.866,-0.423 0.684,0 1.295,0.149 1.833,0.447 0.538,0.298 0.941,0.719 1.206,1.262 0.172,0.317 0.282,0.66 0.332,1.026 0.051,0.368 0.077,0.836 0.077,1.406 v 4.824 c 0,0.52 -0.119,0.913 -0.357,1.179 -0.237,0.266 -0.546,0.398 -0.926,0.398 -0.387,0 -0.7,-0.136 -0.94,-0.408 -0.241,-0.272 -0.361,-0.662 -0.361,-1.169 v -4.321 c 0,-0.854 -0.119,-1.509 -0.356,-1.961 -0.238,-0.452 -0.71,-0.68 -1.42,-0.68 -0.461,0 -0.883,0.138 -1.263,0.413 -0.38,0.276 -0.659,0.655 -0.836,1.136 -0.126,0.387 -0.19,1.107 -0.19,2.165 v 3.248 c 0,0.525 -0.123,0.921 -0.365,1.184 -0.244,0.263 -0.559,0.393 -0.945,0.393 -0.375,0 -0.681,-0.136 -0.922,-0.408 -0.24,-0.272 -0.361,-0.662 -0.361,-1.169 v -7.493 c 0,-0.494 0.107,-0.863 0.323,-1.107 0.215,-0.243 0.51,-0.365 0.883,-0.365 0.229,0 0.435,0.054 0.619,0.162 0.183,0.108 0.331,0.27 0.441,0.483 0.111,0.216 0.166,0.479 0.166,0.789 z"
             id="path476" />
          <path
             style="fill:#44555e"
             d="m 346.926,771.518 h -5.071 c 0.007,0.588 0.125,1.107 0.356,1.557 0.231,0.45 0.538,0.789 0.921,1.017 0.382,0.229 0.805,0.341 1.267,0.341 0.31,0 0.594,-0.035 0.851,-0.107 0.255,-0.074 0.504,-0.187 0.746,-0.343 0.24,-0.154 0.461,-0.321 0.665,-0.499 0.202,-0.178 0.464,-0.419 0.788,-0.723 0.133,-0.113 0.323,-0.171 0.57,-0.171 0.266,0 0.481,0.074 0.646,0.22 0.165,0.146 0.247,0.351 0.247,0.617 0,0.234 -0.091,0.507 -0.275,0.821 -0.184,0.314 -0.461,0.614 -0.832,0.902 -0.371,0.288 -0.835,0.526 -1.396,0.717 -0.56,0.19 -1.205,0.285 -1.933,0.285 -1.665,0 -2.96,-0.476 -3.885,-1.425 -0.923,-0.949 -1.386,-2.238 -1.386,-3.865 0,-0.767 0.114,-1.478 0.342,-2.132 0.228,-0.656 0.561,-1.218 0.998,-1.687 0.436,-0.469 0.975,-0.827 1.614,-1.078 0.639,-0.25 1.349,-0.374 2.128,-0.374 1.013,0 1.881,0.212 2.606,0.641 0.726,0.427 1.269,0.979 1.63,1.656 0.36,0.678 0.542,1.369 0.542,2.07 0,0.653 -0.186,1.075 -0.561,1.27 -0.374,0.193 -0.899,0.29 -1.578,0.29 z m -5.071,-1.472 h 4.701 c -0.063,-0.887 -0.302,-1.551 -0.717,-1.99 -0.415,-0.44 -0.961,-0.66 -1.638,-0.66 -0.646,0 -1.177,0.223 -1.592,0.669 -0.415,0.446 -0.665,1.107 -0.754,1.981 z"
             id="path478" />
          <path
             style="fill:#44555e"
             d="m 357.496,774.671 v -0.257 c -0.348,0.398 -0.691,0.724 -1.03,0.973 -0.339,0.251 -0.706,0.441 -1.102,0.57 -0.395,0.132 -0.828,0.195 -1.296,0.195 -0.622,0 -1.196,-0.131 -1.724,-0.393 -0.529,-0.263 -0.986,-0.639 -1.373,-1.126 -0.387,-0.487 -0.679,-1.06 -0.878,-1.719 -0.2,-0.659 -0.299,-1.371 -0.299,-2.137 0,-1.621 0.395,-2.886 1.187,-3.791 0.792,-0.904 1.833,-1.357 3.125,-1.357 0.747,0 1.378,0.129 1.89,0.384 0.513,0.257 1.013,0.652 1.5,1.183 v -3.827 c 0,-0.532 0.106,-0.934 0.319,-1.206 0.211,-0.273 0.515,-0.408 0.907,-0.408 0.392,0 0.694,0.125 0.907,0.375 0.212,0.251 0.318,0.618 0.318,1.106 v 11.436 c 0,0.494 -0.114,0.864 -0.342,1.111 -0.228,0.246 -0.522,0.37 -0.883,0.37 -0.355,0 -0.647,-0.128 -0.879,-0.384 -0.231,-0.258 -0.347,-0.623 -0.347,-1.098 z m -5.1,-3.809 c 0,0.703 0.108,1.301 0.327,1.795 0.218,0.494 0.518,0.866 0.898,1.115 0.379,0.251 0.794,0.377 1.243,0.377 0.456,0 0.873,-0.119 1.249,-0.357 0.377,-0.236 0.678,-0.602 0.902,-1.091 0.225,-0.491 0.337,-1.105 0.337,-1.839 0,-0.69 -0.112,-1.284 -0.337,-1.782 -0.224,-0.496 -0.528,-0.876 -0.912,-1.14 -0.384,-0.262 -0.803,-0.393 -1.259,-0.393 -0.474,0 -0.899,0.135 -1.272,0.403 -0.373,0.269 -0.663,0.654 -0.869,1.158 -0.204,0.505 -0.307,1.089 -0.307,1.754 z"
             id="path480" />
          <path
             style="fill:#44555e"
             d="m 368.094,763.235 v 3.96 c 0.487,-0.506 0.984,-0.895 1.491,-1.163 0.506,-0.269 1.134,-0.403 1.881,-0.403 0.861,0 1.616,0.204 2.266,0.611 0.648,0.41 1.151,1.002 1.51,1.777 0.357,0.774 0.537,1.695 0.537,2.76 0,0.785 -0.1,1.504 -0.299,2.16 -0.2,0.655 -0.49,1.224 -0.869,1.704 -0.38,0.481 -0.841,0.854 -1.382,1.117 -0.542,0.263 -1.139,0.393 -1.79,0.393 -0.399,0 -0.775,-0.047 -1.125,-0.143 -0.352,-0.095 -0.651,-0.219 -0.898,-0.375 -0.246,-0.154 -0.457,-0.314 -0.631,-0.479 -0.174,-0.164 -0.404,-0.412 -0.689,-0.741 v 0.257 c 0,0.487 -0.117,0.856 -0.352,1.107 -0.233,0.25 -0.531,0.374 -0.892,0.374 -0.367,0 -0.66,-0.124 -0.879,-0.374 -0.219,-0.251 -0.328,-0.62 -0.328,-1.107 v -11.322 c 0,-0.525 0.106,-0.923 0.317,-1.191 0.212,-0.269 0.509,-0.403 0.889,-0.403 0.399,0 0.706,0.128 0.921,0.384 0.214,0.258 0.322,0.622 0.322,1.097 z m 0.124,7.703 c 0,1.032 0.236,1.824 0.708,2.378 0.472,0.555 1.091,0.833 1.857,0.833 0.652,0 1.214,-0.283 1.686,-0.851 0.472,-0.567 0.708,-1.379 0.708,-2.437 0,-0.684 -0.097,-1.273 -0.294,-1.767 -0.197,-0.494 -0.475,-0.876 -0.835,-1.145 -0.361,-0.268 -0.783,-0.403 -1.264,-0.403 -0.494,0 -0.935,0.135 -1.32,0.403 -0.386,0.269 -0.69,0.658 -0.912,1.168 -0.223,0.511 -0.334,1.118 -0.334,1.821 z"
             id="path482" />
          <path
             style="fill:#44555e"
             d="m 379.14,776.476 0.237,-0.58 -3.191,-8.035 c -0.196,-0.461 -0.295,-0.798 -0.295,-1.007 0,-0.222 0.058,-0.427 0.171,-0.616 0.114,-0.19 0.271,-0.343 0.47,-0.456 0.2,-0.115 0.407,-0.172 0.622,-0.172 0.373,0 0.655,0.119 0.846,0.357 0.19,0.237 0.357,0.577 0.503,1.021 l 2.194,6.383 2.08,-5.936 c 0.164,-0.479 0.313,-0.857 0.446,-1.13 0.133,-0.272 0.273,-0.456 0.422,-0.55 0.149,-0.096 0.359,-0.144 0.632,-0.144 0.197,0 0.385,0.052 0.565,0.157 0.18,0.104 0.319,0.245 0.418,0.423 0.098,0.177 0.148,0.363 0.148,0.56 -0.026,0.12 -0.066,0.291 -0.124,0.514 -0.058,0.221 -0.126,0.447 -0.208,0.674 l -3.381,8.852 c -0.292,0.778 -0.577,1.389 -0.855,1.832 -0.279,0.443 -0.647,0.785 -1.106,1.021 -0.46,0.238 -1.078,0.357 -1.857,0.357 -0.759,0 -1.33,-0.082 -1.708,-0.246 -0.381,-0.166 -0.57,-0.467 -0.57,-0.903 0,-0.297 0.089,-0.527 0.271,-0.689 0.18,-0.161 0.448,-0.243 0.801,-0.243 0.14,0 0.276,0.02 0.409,0.059 0.164,0.037 0.307,0.057 0.427,0.057 0.297,0 0.532,-0.044 0.704,-0.134 0.17,-0.088 0.324,-0.241 0.461,-0.461 0.134,-0.219 0.291,-0.542 0.468,-0.965 z"
             id="path484" />
        </g>
        <g
           id="g510">
          <path
             style="fill:#44555e"
             d="m 416.703,765.834 h 0.618 v -0.778 c 0,-0.814 0.1,-1.457 0.307,-1.938 0.204,-0.479 0.556,-0.826 1.047,-1.045 0.49,-0.217 1.163,-0.326 2.017,-0.326 1.52,0 2.272,0.367 2.272,1.114 0,0.238 -0.079,0.444 -0.24,0.615 -0.154,0.169 -0.343,0.256 -0.558,0.256 -0.1,0 -0.278,-0.019 -0.527,-0.06 -0.237,-0.033 -0.452,-0.056 -0.623,-0.056 -0.468,0 -0.767,0.141 -0.905,0.415 -0.127,0.275 -0.195,0.669 -0.195,1.185 v 0.617 h 0.633 c 0.991,0 1.481,0.297 1.481,0.896 0,0.419 -0.127,0.69 -0.393,0.805 -0.262,0.114 -0.624,0.171 -1.089,0.171 h -0.633 v 6.871 c 0,0.511 -0.12,0.9 -0.369,1.168 -0.241,0.273 -0.554,0.406 -0.942,0.406 -0.367,0 -0.671,-0.134 -0.918,-0.406 -0.244,-0.268 -0.364,-0.657 -0.364,-1.168 v -6.871 h -0.714 c -0.389,0 -0.683,-0.084 -0.894,-0.262 -0.209,-0.171 -0.314,-0.399 -0.314,-0.678 -10e-4,-0.623 0.434,-0.931 1.303,-0.931"
             id="path488" />
          <path
             style="fill:#44555e"
             d="m 425.192,772.408 v 2.168 c 0,0.523 -0.133,0.919 -0.374,1.18 -0.247,0.266 -0.559,0.395 -0.938,0.395 -0.382,0 -0.688,-0.131 -0.927,-0.4 -0.236,-0.264 -0.36,-0.656 -0.36,-1.174 v -7.223 c 0,-1.166 0.42,-1.749 1.261,-1.749 0.434,0 0.743,0.135 0.934,0.408 0.189,0.273 0.295,0.674 0.317,1.208 0.308,-0.534 0.624,-0.935 0.948,-1.208 0.332,-0.273 0.763,-0.408 1.31,-0.408 0.549,0 1.072,0.135 1.585,0.408 0.516,0.273 0.771,0.637 0.771,1.085 0,0.315 -0.11,0.58 -0.326,0.781 -0.22,0.209 -0.454,0.312 -0.706,0.312 -0.1,0 -0.331,-0.063 -0.692,-0.18 -0.365,-0.113 -0.688,-0.173 -0.963,-0.173 -0.38,0 -0.692,0.103 -0.932,0.298 -0.242,0.205 -0.431,0.497 -0.564,0.887 -0.129,0.395 -0.219,0.865 -0.273,1.404 -0.048,0.542 -0.071,1.203 -0.071,1.981"
             id="path490" />
          <path
             style="fill:#44555e"
             d="m 437.113,771.516 h -5.074 c 0.009,0.588 0.124,1.11 0.354,1.559 0.235,0.446 0.54,0.786 0.925,1.017 0.385,0.227 0.804,0.34 1.268,0.34 0.311,0 0.593,-0.033 0.85,-0.111 0.254,-0.069 0.505,-0.185 0.745,-0.341 0.242,-0.152 0.46,-0.318 0.664,-0.5 0.202,-0.175 0.467,-0.416 0.79,-0.719 0.135,-0.113 0.324,-0.174 0.568,-0.174 0.269,0 0.481,0.074 0.649,0.222 0.166,0.147 0.243,0.351 0.243,0.617 0,0.235 -0.089,0.508 -0.268,0.819 -0.188,0.317 -0.463,0.616 -0.836,0.906 -0.374,0.285 -0.839,0.527 -1.398,0.714 -0.559,0.19 -1.206,0.286 -1.932,0.286 -1.671,0 -2.964,-0.473 -3.887,-1.422 -0.924,-0.952 -1.392,-2.242 -1.392,-3.868 0,-0.767 0.117,-1.479 0.348,-2.135 0.225,-0.658 0.558,-1.216 0.999,-1.688 0.436,-0.471 0.97,-0.828 1.612,-1.078 0.638,-0.249 1.347,-0.374 2.128,-0.374 1.011,0 1.881,0.214 2.606,0.646 0.724,0.423 1.273,0.977 1.629,1.654 0.361,0.681 0.542,1.368 0.542,2.074 0,0.648 -0.188,1.07 -0.561,1.266 -0.37,0.193 -0.894,0.29 -1.572,0.29 m -5.074,-1.475 h 4.701 c -0.063,-0.885 -0.298,-1.55 -0.714,-1.986 -0.418,-0.442 -0.959,-0.66 -1.641,-0.66 -0.645,0 -1.177,0.22 -1.592,0.669 -0.413,0.446 -0.667,1.104 -0.754,1.977"
             id="path492" />
          <path
             style="fill:#44555e"
             d="m 447.9,771.516 h -5.073 c 0.006,0.588 0.125,1.11 0.354,1.559 0.231,0.446 0.539,0.786 0.921,1.017 0.383,0.227 0.806,0.34 1.271,0.34 0.308,0 0.593,-0.033 0.845,-0.111 0.259,-0.069 0.506,-0.185 0.75,-0.341 0.242,-0.152 0.46,-0.318 0.664,-0.5 0.199,-0.175 0.464,-0.416 0.788,-0.719 0.135,-0.113 0.326,-0.174 0.568,-0.174 0.268,0 0.483,0.074 0.65,0.222 0.165,0.147 0.24,0.351 0.24,0.617 0,0.235 -0.087,0.508 -0.273,0.819 -0.177,0.317 -0.455,0.616 -0.83,0.906 -0.37,0.285 -0.84,0.527 -1.395,0.714 -0.558,0.19 -1.208,0.286 -1.935,0.286 -1.667,0 -2.959,-0.473 -3.887,-1.422 -0.924,-0.952 -1.389,-2.242 -1.389,-3.868 0,-0.767 0.116,-1.479 0.348,-2.135 0.227,-0.658 0.559,-1.216 0.996,-1.688 0.436,-0.471 0.973,-0.828 1.614,-1.078 0.638,-0.249 1.351,-0.374 2.129,-0.374 1.009,0 1.878,0.214 2.613,0.646 0.72,0.423 1.266,0.977 1.621,1.654 0.359,0.681 0.545,1.368 0.545,2.074 0,0.648 -0.191,1.07 -0.561,1.266 -0.374,0.193 -0.898,0.29 -1.574,0.29 m -5.073,-1.475 h 4.701 c -0.063,-0.885 -0.304,-1.55 -0.715,-1.986 -0.421,-0.442 -0.962,-0.66 -1.643,-0.66 -0.645,0 -1.176,0.22 -1.593,0.669 -0.412,0.446 -0.666,1.104 -0.75,1.977"
             id="path494" />
          <path
             style="fill:#44555e"
             d="m 453.58,767.063 v 0.311 c 0.486,-0.601 0.994,-1.042 1.524,-1.324 0.519,-0.284 1.118,-0.427 1.782,-0.427 0.795,0 1.535,0.208 2.207,0.617 0.671,0.414 1.198,1.016 1.589,1.807 0.39,0.795 0.586,1.729 0.586,2.813 0,0.796 -0.112,1.531 -0.336,2.201 -0.224,0.668 -0.537,1.227 -0.929,1.68 -0.393,0.45 -0.855,0.802 -1.39,1.046 -0.542,0.241 -1.111,0.363 -1.728,0.363 -0.738,0 -1.364,-0.148 -1.865,-0.447 -0.503,-0.292 -0.982,-0.733 -1.441,-1.306 v 3.893 c 0,1.136 -0.416,1.71 -1.244,1.71 -0.49,0 -0.809,-0.146 -0.972,-0.44 -0.151,-0.299 -0.233,-0.724 -0.233,-1.291 v -11.193 c 0,-0.495 0.106,-0.859 0.32,-1.107 0.215,-0.239 0.512,-0.364 0.885,-0.364 0.369,0 0.666,0.125 0.896,0.374 0.236,0.253 0.349,0.61 0.349,1.084 m 5.084,3.768 c 0,-0.685 -0.107,-1.273 -0.315,-1.763 -0.209,-0.492 -0.499,-0.867 -0.866,-1.128 -0.367,-0.263 -0.782,-0.397 -1.232,-0.397 -0.714,0 -1.318,0.284 -1.809,0.844 -0.492,0.566 -0.739,1.396 -0.739,2.493 0,1.026 0.244,1.833 0.735,2.406 0.487,0.573 1.086,0.858 1.813,0.858 0.429,0 0.83,-0.126 1.197,-0.372 0.371,-0.253 0.665,-0.627 0.884,-1.127 0.221,-0.501 0.332,-1.106 0.332,-1.814"
             id="path496" />
          <path
             style="fill:#44555e"
             d="m 463.88,764.397 c -0.362,0 -0.669,-0.114 -0.923,-0.335 -0.26,-0.223 -0.388,-0.532 -0.388,-0.937 0,-0.368 0.131,-0.67 0.396,-0.91 0.262,-0.234 0.566,-0.356 0.914,-0.356 0.34,0 0.636,0.107 0.894,0.319 0.26,0.219 0.391,0.534 0.391,0.946 0,0.399 -0.127,0.711 -0.378,0.936 -0.254,0.223 -0.555,0.337 -0.906,0.337 m 1.284,2.679 v 7.502 c 0,0.516 -0.124,0.908 -0.37,1.172 -0.25,0.269 -0.561,0.4 -0.941,0.4 -0.381,0 -0.685,-0.134 -0.928,-0.406 -0.233,-0.276 -0.355,-0.665 -0.355,-1.166 v -7.428 c 0,-0.51 0.122,-0.895 0.355,-1.154 0.243,-0.265 0.547,-0.392 0.928,-0.392 0.381,0 0.691,0.127 0.941,0.392 0.246,0.26 0.37,0.622 0.37,1.08"
             id="path498" />
          <path
             style="fill:#44555e"
             d="m 473.523,774.967 -2.284,-3.766 -1.408,1.328 v 2.065 c 0,0.499 -0.133,0.882 -0.397,1.149 -0.257,0.273 -0.566,0.406 -0.906,0.406 -0.398,0 -0.715,-0.131 -0.94,-0.4 -0.227,-0.264 -0.344,-0.656 -0.344,-1.174 v -11.063 c 0,-0.573 0.114,-1.011 0.331,-1.313 0.223,-0.305 0.545,-0.452 0.953,-0.452 0.399,0 0.713,0.137 0.949,0.411 0.234,0.271 0.354,0.674 0.354,1.202 v 6.293 l 2.916,-3.063 c 0.362,-0.376 0.633,-0.641 0.827,-0.778 0.189,-0.139 0.419,-0.208 0.689,-0.208 0.326,0 0.594,0.104 0.815,0.309 0.211,0.206 0.32,0.466 0.32,0.773 0,0.379 -0.354,0.889 -1.055,1.521 l -1.377,1.263 2.659,4.183 c 0.193,0.313 0.339,0.544 0.424,0.706 0.084,0.159 0.13,0.319 0.13,0.462 0,0.413 -0.114,0.734 -0.341,0.976 -0.225,0.236 -0.523,0.354 -0.886,0.354 -0.316,0 -0.564,-0.081 -0.733,-0.256 -0.168,-0.173 -0.406,-0.484 -0.696,-0.928"
             id="path500" />
          <path
             style="fill:#44555e"
             d="m 479.159,776.15 c -0.392,0 -0.728,-0.126 -1.014,-0.381 -0.284,-0.249 -0.429,-0.605 -0.429,-1.064 0,-0.386 0.138,-0.719 0.41,-0.995 0.274,-0.279 0.607,-0.419 1.008,-0.419 0.397,0 0.735,0.14 1.022,0.412 0.279,0.275 0.422,0.612 0.422,1.002 0,0.452 -0.143,0.808 -0.422,1.06 -0.286,0.259 -0.618,0.385 -0.997,0.385"
             id="path502" />
          <path
             style="fill:#44555e"
             d="m 492.057,772.94 c 0,0.32 -0.097,0.668 -0.291,1.034 -0.191,0.37 -0.488,0.718 -0.886,1.05 -0.395,0.332 -0.892,0.602 -1.495,0.804 -0.601,0.202 -1.28,0.307 -2.03,0.307 -1.606,0 -2.858,-0.47 -3.758,-1.401 -0.896,-0.936 -1.346,-2.19 -1.346,-3.76 0,-1.067 0.204,-2.006 0.619,-2.824 0.407,-0.815 1.004,-1.447 1.781,-1.894 0.779,-0.448 1.716,-0.67 2.794,-0.67 0.674,0 1.288,0.098 1.852,0.295 0.561,0.195 1.032,0.451 1.425,0.759 0.387,0.315 0.685,0.644 0.89,0.992 0.207,0.352 0.308,0.681 0.308,0.987 0,0.308 -0.113,0.571 -0.343,0.787 -0.235,0.215 -0.516,0.324 -0.839,0.324 -0.219,0 -0.398,-0.057 -0.541,-0.166 -0.144,-0.112 -0.305,-0.29 -0.479,-0.542 -0.317,-0.479 -0.646,-0.842 -0.996,-1.079 -0.343,-0.243 -0.78,-0.362 -1.314,-0.362 -0.762,0 -1.384,0.298 -1.854,0.898 -0.468,0.596 -0.703,1.42 -0.703,2.454 0,0.488 0.063,0.939 0.183,1.348 0.117,0.407 0.291,0.756 0.52,1.044 0.23,0.287 0.504,0.505 0.826,0.654 0.324,0.153 0.681,0.226 1.064,0.226 0.521,0 0.967,-0.12 1.337,-0.36 0.376,-0.241 0.702,-0.607 0.986,-1.102 0.158,-0.291 0.327,-0.518 0.509,-0.684 0.183,-0.163 0.409,-0.249 0.676,-0.249 0.316,0 0.58,0.123 0.786,0.362 0.213,0.239 0.319,0.498 0.319,0.768"
             id="path504" />
          <path
             style="fill:#44555e"
             d="m 503.248,770.88 c 0,0.77 -0.122,1.484 -0.355,2.139 -0.247,0.652 -0.592,1.213 -1.05,1.679 -0.455,0.469 -1.002,0.828 -1.632,1.08 -0.64,0.247 -1.35,0.375 -2.139,0.375 -0.785,0 -1.493,-0.128 -2.121,-0.383 -0.623,-0.249 -1.171,-0.614 -1.626,-1.082 -0.461,-0.477 -0.809,-1.034 -1.052,-1.677 -0.229,-0.643 -0.351,-1.354 -0.351,-2.131 0,-0.786 0.124,-1.506 0.358,-2.158 0.242,-0.654 0.589,-1.212 1.039,-1.673 0.451,-0.462 0.993,-0.817 1.631,-1.07 0.643,-0.249 1.35,-0.374 2.121,-0.374 0.784,0 1.498,0.125 2.139,0.382 0.638,0.251 1.183,0.614 1.644,1.079 0.458,0.475 0.803,1.029 1.04,1.672 0.234,0.651 0.354,1.36 0.354,2.142 m -2.604,0 c 0,-1.059 -0.234,-1.881 -0.698,-2.469 -0.463,-0.596 -1.09,-0.888 -1.874,-0.888 -0.508,0 -0.955,0.132 -1.343,0.394 -0.387,0.262 -0.681,0.649 -0.89,1.164 -0.209,0.514 -0.315,1.113 -0.315,1.799 0,0.679 0.103,1.268 0.31,1.773 0.208,0.511 0.502,0.897 0.886,1.166 0.386,0.267 0.835,0.404 1.353,0.404 0.784,0 1.411,-0.296 1.874,-0.892 0.463,-0.59 0.697,-1.41 0.697,-2.451"
             id="path506" />
          <path
             style="fill:#44555e"
             d="m 513.14,771.07 v 3.446 c 0,0.547 -0.12,0.951 -0.369,1.227 -0.25,0.273 -0.571,0.408 -0.978,0.408 -0.393,0 -0.714,-0.136 -0.951,-0.408 -0.247,-0.276 -0.372,-0.681 -0.372,-1.227 v -4.131 c 0,-0.653 -0.02,-1.162 -0.063,-1.524 -0.046,-0.354 -0.168,-0.655 -0.362,-0.883 -0.196,-0.235 -0.509,-0.352 -0.931,-0.352 -0.851,0 -1.407,0.29 -1.677,0.881 -0.268,0.576 -0.406,1.413 -0.406,2.507 v 3.502 c 0,0.538 -0.122,0.946 -0.361,1.224 -0.249,0.273 -0.567,0.412 -0.965,0.412 -0.396,0 -0.717,-0.139 -0.967,-0.412 -0.252,-0.277 -0.376,-0.685 -0.376,-1.224 v -7.419 c 0,-0.489 0.111,-0.86 0.335,-1.111 0.229,-0.257 0.526,-0.382 0.89,-0.382 0.356,0 0.651,0.123 0.892,0.355 0.236,0.238 0.354,0.566 0.354,0.984 v 0.245 c 0.453,-0.535 0.935,-0.932 1.444,-1.181 0.517,-0.26 1.082,-0.386 1.713,-0.386 0.651,0 1.211,0.131 1.678,0.39 0.47,0.261 0.853,0.655 1.16,1.177 0.439,-0.528 0.909,-0.923 1.41,-1.181 0.5,-0.257 1.053,-0.386 1.662,-0.386 0.706,0 1.321,0.143 1.834,0.419 0.51,0.278 0.893,0.68 1.148,1.195 0.221,0.473 0.33,1.21 0.33,2.217 v 5.063 c 0,0.547 -0.122,0.951 -0.367,1.227 -0.246,0.273 -0.575,0.408 -0.979,0.408 -0.395,0 -0.714,-0.139 -0.965,-0.412 -0.25,-0.277 -0.376,-0.685 -0.376,-1.224 v -4.361 c 0,-0.559 -0.023,-1.003 -0.069,-1.338 -0.047,-0.337 -0.177,-0.62 -0.383,-0.847 -0.212,-0.228 -0.53,-0.344 -0.953,-0.344 -0.342,0 -0.666,0.107 -0.974,0.308 -0.307,0.198 -0.547,0.477 -0.721,0.813 -0.187,0.44 -0.285,1.215 -0.285,2.325"
             id="path508" />
        </g>
        <g
           id="g532">
          <path
             style="fill:#44555e"
             d="m 392.435,770.252 c -0.002,-0.005 -0.002,-0.01 -0.002,-0.018 0,0.008 0,0.013 0.002,0.018 z"
             id="path512" />
          <path
             style="fill:#44555e"
             d="m 392.566,771.081 c 0.002,0 0.002,0 0.003,0 -0.05,-0.236 -0.088,-0.471 -0.119,-0.702 0.03,0.233 0.069,0.469 0.116,0.702 z"
             id="path514" />
          <path
             style="fill:#44555e"
             d="m 393.424,773.487 c -0.006,-0.01 -0.011,-0.021 -0.017,-0.033 0.006,0.012 0.011,0.023 0.017,0.033 z"
             id="path516" />
          <path
             style="fill:#44555e"
             d="m 393.342,773.327 c -0.022,-0.044 -0.044,-0.09 -0.065,-0.134 0.021,0.047 0.043,0.09 0.065,0.134 z"
             id="path518" />
          <path
             style="fill:#44555e"
             d="m 392.807,772.008 c 0.127,0.4 0.28,0.788 0.457,1.158 -0.18,-0.378 -0.33,-0.767 -0.454,-1.158 -10e-4,0 -0.002,0 -0.003,0 z"
             id="path520" />
          <path
             style="fill:#44555e"
             d="m 402.473,760.315 c 0.501,0 0.871,0.04 1.295,0.111 l 0.12,-0.763 c 0,0 -1.171,-0.36 -2.71,-0.234 l -0.121,-0.415 c 0.478,-0.101 0.838,-0.526 0.838,-1.034 0,-0.582 -0.474,-1.054 -1.057,-1.054 -0.583,0 -1.056,0.472 -1.056,1.054 0,0.508 0.358,0.934 0.836,1.034 l 0.134,0.463 c -1.634,0.225 -2.935,0.862 -2.935,0.862 l 0.23,0.705 c 0.989,-0.329 1.846,-0.529 2.624,-0.613 0.761,-0.08 1.334,-0.116 1.802,-0.116 z"
             id="path522" />
          <path
             style="fill:#44555e"
             d="m 393.405,764.174 0.006,-0.008 c 0.039,-0.05 0.076,-0.097 0.113,-0.143 l -0.313,-0.226 -0.488,-0.356 c -0.027,0.038 -0.795,0.744 -1.401,2.048 -0.025,-0.041 -0.056,-0.081 -0.09,-0.119 -0.182,-0.198 -0.436,-0.3 -0.758,-0.294 -0.004,0 -0.009,0 -0.015,0 -0.2,0 -0.337,-0.066 -0.427,-0.147 0.089,-0.113 0.143,-0.256 0.143,-0.413 0,-0.368 -0.3,-0.669 -0.669,-0.669 -0.369,0 -0.669,0.301 -0.669,0.669 0,0.37 0.3,0.669 0.669,0.669 0.058,0 0.113,-0.01 0.167,-0.021 0.164,0.183 0.425,0.342 0.808,0.334 0.197,-0.002 0.341,0.049 0.438,0.155 0.111,0.121 0.148,0.296 0.16,0.428 -0.001,0.002 -0.001,0.005 -0.003,0.005 -0.435,1.19 -0.311,2.67 -0.311,2.67 l 1.057,0.042 c 0.022,-0.539 0.099,-1.482 0.372,-2.23 0.525,-1.45 1.184,-2.356 1.211,-2.394 z"
             id="path524" />
          <path
             style="fill:#44555e"
             d="m 411.672,761.199 c -0.368,0 -0.669,0.299 -0.669,0.669 0,0.058 0.009,0.112 0.023,0.165 -0.184,0.166 -0.343,0.428 -0.337,0.81 0.003,0.197 -0.048,0.34 -0.154,0.437 -0.085,0.075 -0.191,0.115 -0.296,0.141 -0.787,-1.103 -1.756,-1.775 -1.756,-1.775 l -0.759,0.813 c 0.573,0.521 1.159,1.175 1.729,1.99 0.394,0.563 0.799,1.29 1.136,2.015 l 1.024,-0.486 c 0,0 -0.468,-1.155 -1.126,-2.191 0.114,-0.04 0.229,-0.102 0.331,-0.192 0.2,-0.181 0.299,-0.436 0.293,-0.758 -0.002,-0.208 0.067,-0.349 0.149,-0.441 0.114,0.087 0.257,0.143 0.412,0.143 0.371,0 0.67,-0.3 0.67,-0.669 0,-0.372 -0.299,-0.671 -0.67,-0.671 z"
             id="path526" />
          <path
             style="fill:#44555e"
             d="m 409.015,770.401 c -1.409,0.687 -3.728,1.594 -6.781,2.02 -1.198,0.166 -2.359,0.227 -3.428,0.227 -1.391,0 -2.62,-0.103 -3.563,-0.223 -1.076,-0.136 -1.917,-0.302 -2.432,-0.418 0.124,0.392 0.273,0.78 0.454,1.158 0.003,0.01 0.008,0.021 0.013,0.027 0.021,0.044 0.043,0.09 0.065,0.134 0.021,0.044 0.043,0.087 0.065,0.127 0.006,0.012 0.011,0.023 0.017,0.033 0.303,0.57 0.667,1.095 1.081,1.549 1.44,1.575 2.907,1.824 2.921,1.826 l 0.023,0.003 0.022,0.008 c 0.013,0.005 1.314,0.425 3.292,0.425 1.945,0 3.854,-0.393 5.674,-1.167 1.348,-0.689 2.622,-1.736 3.254,-2.67 0.488,-0.723 0.841,-1.493 1.05,-2.294 0.111,-0.426 0.199,-1.107 0.147,-1.825 -0.399,0.267 -1.026,0.647 -1.874,1.06 z"
             id="path528" />
          <path
             style="fill:#44555e"
             d="m 393.857,764.508 c -0.041,0.06 -0.652,0.925 -1.135,2.253 -0.362,0.995 -0.346,2.443 -0.346,2.46 v 0.003 c 0,0.34 0.019,0.677 0.057,1.011 0,0.008 0,0.013 0.002,0.018 0.004,0.043 0.011,0.084 0.015,0.127 0.03,0.231 0.069,0.466 0.119,0.702 0.7,0.178 4.878,1.152 9.548,0.502 2.927,-0.407 5.149,-1.273 6.499,-1.927 1.121,-0.544 1.842,-1.036 2.12,-1.238 -0.277,-1.028 -1.042,-2.641 -1.743,-3.646 -2.005,-2.865 -4.167,-3.601 -5.277,-3.783 -0.424,-0.069 -0.763,-0.109 -1.243,-0.109 -0.447,0 -1.002,0.036 -1.743,0.114 -0.743,0.077 -1.572,0.273 -2.532,0.596 -1.348,0.451 -2.567,1.159 -3.527,2.048 l -0.033,0.03 c -0.143,0.129 -0.439,0.404 -0.781,0.839 z m 12.27,-0.667 c 0.961,0 1.743,0.781 1.743,1.743 0,0.962 -0.782,1.744 -1.743,1.744 -0.962,0 -1.742,-0.782 -1.742,-1.744 0,-0.962 0.78,-1.743 1.742,-1.743 z m -8.242,-0.07 c 1.557,0 2.817,1.262 2.817,2.817 0,1.556 -1.26,2.815 -2.817,2.815 -1.555,0 -2.816,-1.259 -2.816,-2.815 0,-1.555 1.261,-2.817 2.816,-2.817 z"
             id="path530" />
        </g>
      </g>
    </g>
  </g>
</svg>
